<?xml version="1.0" standalone="no"?>
<!DOCTYPE svg PUBLIC "-//W3C//DTD SVG 20010904//EN"
 "http://www.w3.org/TR/2001/REC-SVG-20010904/DTD/svg10.dtd">
<svg version="1.0" xmlns="http://www.w3.org/2000/svg"
 width="200.000000pt" height="200.000000pt" viewBox="0 0 200.000000 200.000000"
 preserveAspectRatio="xMidYMid meet">
<metadata>
Created by potrace 1.11, written by Peter Selinger 2001-2013
</metadata>
<g transform="translate(0.000000,200.000000) scale(0.100000,-0.100000)"
fill="#000000" stroke="none">
<path d="M956 1739 c-10 -14 -12 -29 -6 -43 6 -16 -5 -49 -45 -132 -46 -97
-56 -112 -81 -117 -37 -7 -304 110 -304 133 0 24 -29 60 -57 71 -17 6 -32 5
-53 -6 -50 -26 -56 -84 -14 -122 29 -26 61 -29 89 -9 18 12 34 7 147 -43 l126
-56 0 -38 c0 -21 2 -40 5 -43 3 -3 -28 -39 -69 -80 -67 -67 -77 -73 -96 -63
-34 18 -106 5 -137 -25 l-28 -26 -96 43 c-82 36 -100 48 -115 77 -18 37 -38
46 -78 36 -49 -13 -56 -81 -11 -111 19 -12 30 -13 54 -5 26 10 42 6 124 -30
108 -48 118 -55 114 -78 -1 -9 6 -32 16 -50 l19 -33 -53 -79 c-30 -45 -60 -80
-71 -82 -26 -4 -40 -30 -33 -60 15 -59 100 -31 89 29 -2 7 20 47 48 88 l51 76
44 -5 c30 -2 53 2 73 14 l29 18 60 -42 c55 -37 61 -45 61 -76 0 -25 7 -41 27
-57 38 -33 80 -30 117 9 24 26 55 40 165 74 l134 42 25 -23 c29 -27 66 -35
107 -22 25 8 33 4 85 -44 31 -29 62 -67 68 -84 13 -35 56 -55 81 -39 31 19 37
39 22 70 -12 24 -21 29 -52 30 -31 0 -46 9 -91 52 -52 50 -53 53 -49 97 6 51
-13 90 -53 105 -27 11 -25 -3 -27 198 -3 165 -3 165 150 75 l117 -68 97 -135
c54 -74 101 -147 104 -162 7 -31 29 -42 56 -27 15 7 18 16 13 32 -4 12 -11 24
-16 25 -16 7 -37 33 -123 152 -48 66 -84 124 -81 129 3 5 42 40 87 77 66 56
86 68 111 65 37 -3 68 23 68 59 0 33 -28 60 -63 60 -39 0 -61 -26 -59 -70 1
-8 -24 -35 -54 -60 -31 -25 -72 -59 -92 -76 l-35 -31 -111 65 c-61 36 -112 66
-113 67 -2 1 -4 10 -6 21 -10 51 -50 79 -92 64 -15 -5 -43 12 -120 73 -55 43
-102 86 -104 95 -10 50 -68 68 -95 31z m173 -156 c83 -65 100 -83 100 -106 1
-16 11 -38 26 -51 25 -23 25 -26 25 -179 0 -118 -3 -156 -13 -160 -22 -8 -331
264 -354 312 l-21 42 37 77 c21 42 43 92 50 110 9 20 20 32 32 32 11 0 64 -35
118 -77z m-149 -319 c36 -31 83 -73 106 -93 22 -20 61 -53 87 -75 39 -33 45
-41 36 -58 -6 -11 -12 -29 -14 -40 -3 -11 -6 -22 -7 -22 -10 -7 -245 -76 -257
-76 -7 0 -22 12 -34 26 -18 24 -25 26 -70 21 -46 -6 -53 -3 -107 35 -55 38
-58 43 -53 74 3 18 1 47 -5 64 -11 30 -9 33 63 106 63 62 78 73 93 65 14 -7
28 -5 53 8 19 10 36 19 39 20 3 0 34 -24 70 -55z"/>
<path d="M139 577 c0 -23 -1 -107 -2 -187 l0 -145 41 -3 41 -3 3 108 3 107 50
-84 c69 -116 81 -116 152 5 l53 89 0 -112 0 -112 39 0 c22 0 41 5 43 13 3 10
2 280 -1 349 -1 13 -9 17 -36 16 -34 -1 -38 -5 -102 -115 -36 -62 -69 -113
-72 -113 -3 0 -36 52 -73 114 -66 111 -69 114 -103 114 -34 0 -35 -1 -36 -41z"/>
<path d="M1461 602 c-8 -16 -104 -230 -142 -319 l-18 -43 44 0 c43 0 46 2 61
40 l16 40 88 0 88 0 16 -40 c15 -38 18 -40 61 -40 25 0 45 2 45 3 0 2 -37 87
-83 188 l-82 184 -42 2 c-32 2 -45 -2 -52 -15z m81 -147 l27 -65 -59 0 -59 0
27 65 c15 36 29 65 32 65 3 0 17 -29 32 -65z"/>
<path d="M1760 429 l0 -189 45 0 45 0 0 190 0 189 -45 -1 -44 -1 -1 -188z"/>
<path d="M705 515 c-103 -53 -101 -211 2 -260 45 -21 112 -21 158 1 94 44 104
184 17 249 -35 26 -135 32 -177 10z m144 -91 c14 -31 14 -47 0 -78 -23 -51
-105 -50 -128 0 -15 34 -14 55 5 82 33 47 100 45 123 -4z"/>
<path d="M1052 510 c-70 -43 -93 -135 -49 -200 81 -121 269 -86 291 54 8 52
-21 116 -66 144 -47 29 -130 30 -176 2z m148 -80 c16 -31 11 -79 -10 -100 -11
-11 -23 -20 -27 -21 -5 0 -16 -2 -26 -4 -10 -2 -30 7 -44 20 -45 38 -32 115
22 135 26 9 73 -7 85 -30z"/>
</g>
</svg>
